<svg viewBox="0 0 400 400" xmlns="http://www.w3.org/2000/svg">
  <defs>
    <linearGradient id="cur" x1="0%" y1="0%" x2="100%" y2="100%">
      <stop offset="0%"   stop-color="#CFE8EC"/>
      <stop offset="35%"  stop-color="#1A8FA0"/>
      <stop offset="65%"  stop-color="#C75B2A"/>
      <stop offset="100%" stop-color="#131F35"/>
    </linearGradient>
    <clipPath id="tri">
      <path d="M 310 85 L 82 155 L 228 308 Z"/>
    </clipPath>
  </defs>
  <rect width="400" height="400" rx="60" fill="#D4E8F4"/>
  <path d="M 310 85 L 82 155 L 228 308 Z" fill="url(#cur)"/>
  <g clip-path="url(#tri)">
    <line x1="-50"  y1="320" x2="200" y2="70"  stroke="white" stroke-width="1.2" stroke-opacity="0.45"/>
    <line x1="-20"  y1="340" x2="240" y2="90"  stroke="white" stroke-width="1.2" stroke-opacity="0.45"/>
    <line x1="10"   y1="360" x2="280" y2="110" stroke="white" stroke-width="1.2" stroke-opacity="0.45"/>
    <line x1="40"   y1="380" x2="320" y2="130" stroke="white" stroke-width="1.2" stroke-opacity="0.45"/>
    <line x1="70"   y1="400" x2="360" y2="150" stroke="white" stroke-width="1.2" stroke-opacity="0.45"/>
    <line x1="110"  y1="420" x2="400" y2="170" stroke="white" stroke-width="1.2" stroke-opacity="0.45"/>
    <line x1="150"  y1="440" x2="440" y2="190" stroke="white" stroke-width="1.2" stroke-opacity="0.45"/>
    <line x1="190"  y1="460" x2="480" y2="210" stroke="white" stroke-width="1.2" stroke-opacity="0.45"/>
    <line x1="230"  y1="480" x2="520" y2="230" stroke="white" stroke-width="1.2" stroke-opacity="0.45"/>
    <line x1="270"  y1="500" x2="560" y2="250" stroke="white" stroke-width="1.2" stroke-opacity="0.45"/>
    <line x1="310"  y1="520" x2="600" y2="270" stroke="white" stroke-width="1.2" stroke-opacity="0.45"/>
    <line x1="350"  y1="540" x2="640" y2="290" stroke="white" stroke-width="1.2" stroke-opacity="0.45"/>
  </g>
  <path d="M 310 85 L 82 155 L 228 308 Z"
        fill="none" stroke="white" stroke-width="3" stroke-linejoin="round"/>
</svg>
